<?xml version="1.0" encoding="utf-8"?>
<!-- Generator: Adobe Illustrator 24.3.0, SVG Export Plug-In . SVG Version: 6.00 Build 0)  -->
<svg version="1.1" id="레이어_1" xmlns="http://www.w3.org/2000/svg" xmlns:xlink="http://www.w3.org/1999/xlink" x="0px"
	 y="0px" viewBox="0 0 416 604" style="enable-background:new 0 0 416 604;" xml:space="preserve">
<style type="text/css">
	.st0{fill:#30492C;}
	.st1{fill:#B4D435;}
	.st2{fill:#E6ECA2;}
	.st3{fill:#5F301C;}
	.st4{fill:#8C562A;}
</style>
<g>
	<path class="st0" d="M363.5,237.5c-20.6-37.1-49.1-81.1-60.8-103.3c-11.6-22.2-29.9-68-60.8-100.2c-12.1-12.6-26.5-22.7-43.5-27.5
		c-22.6-6.3-46.7-5.9-69.7-3C109.2,6,93.9,13.1,77.9,24.4c-34.4,24.2-51.1,66-54.7,108.8C19.6,176,19.6,223.9,13,270.7
		c-5.8,41-11.1,75-11,111.6c0,5.2,0.1,10.5,0.4,15.8c2,42.8,17.2,134.5,108.9,180.3s173.7,12.6,212.2-8.6
		c38.5-21.2,79.5-58.9,89.1-155.6c0.9-9.1,1.3-17.7,1.4-26C414.6,308.4,378.6,264.9,363.5,237.5z M403,409
		c-9.2,92.6-48.3,128.8-84.9,149.1c-36.7,20.3-114.9,52.1-202.2,8.2C28.5,522.4,14,434.6,12.1,393.6c-1.9-41,3.9-77.2,10.1-122
		c6.3-44.9,6.3-90.7,9.7-131.7S51.2,58.8,84,35.7c8.6-6.1,17.8-11.7,27.6-15.6c3.1-1.2,6.2-2.3,9.5-2.9c3-0.6,6.1-0.8,9.2-1
		c0.4,0,0.8-0.1,1.2-0.1c3.4-0.2,6.7-0.9,10.1-1.1c8.9-0.5,18-0.4,26.9-0.4c9.5,0.1,14.6,1.6,23.8,3.9c8.5,2.2,12.4,4.2,19.8,9
		c7.2,4.6,13.6,10.3,19.5,16.5c29.4,30.9,52.3,76.2,63.4,97.4c11.1,21.2,40.2,64.3,59.8,99.9C370.7,270.3,412.1,316.4,403,409z"/>
	<path class="st1" d="M295,141.4C283.9,120.2,261,74.9,231.6,44c-5.9-6.2-12.3-11.9-19.5-16.5c-7.4-4.8-11.2-6.8-19.8-9
		c-9.2-2.3-14.3-3.8-23.8-3.9c-9,0-18-0.1-26.9,0.4c-3.4,0.2-6.7,0.9-10.1,1.1c-0.4,0-0.8,0.1-1.2,0.1c-3.1,0.2-6.2,0.4-9.2,1
		c-3.3,0.6-6.4,1.7-9.5,2.9c-9.9,3.8-19,9.5-27.6,15.6C51.2,58.8,35.2,98.9,31.9,139.9s-3.4,86.8-9.7,131.7
		c-6.3,44.9-12.1,81-10.1,122c1.9,41,16.4,128.8,103.8,172.7c87.3,43.9,165.5,12.1,202.2-8.2c36.7-20.3,75.8-56.4,84.9-149.1
		s-32.2-138.8-48.2-167.7C335.2,205.8,306.1,162.7,295,141.4z M229.9,555.4c-57.3,4.9-103.2-21.6-139-52.9
		C55.1,471.3,43.7,412,38.2,376.1c-5.5-35.9,0.4-70.2,6.1-108c5.7-37.8,7.2-71.8,8.6-96.8c1.3-25,3.3-60,8.1-79.3
		c4.8-19.3,24.4-38.9,34-42.2c9.6-3.3,13.9-4.9,31.9-2.7c5.4,0.6,5.7,3,10.6,2.6c4.9-0.4,11.4-16.9,45.8-13.4
		c34.4,3.5,62.8,58.9,86.9,98.6c12.3,20.3,22.1,42,32.5,63.3c9.7,19.8,22.3,37.1,33.5,55.9c23.6,39.6,40.9,84.1,42.5,130.6
		C381.7,474.6,320.2,547.7,229.9,555.4z"/>
	<path class="st2" d="M302.6,198.3c-10.5-21.3-20.2-43-32.5-63.3c-24.1-39.8-52.6-95.1-86.9-98.6c-34.4-3.5-40.9,12.9-45.8,13.4
		c-4.9,0.4-5.2-1.9-10.6-2.6c-18-2.2-22.3-0.6-31.9,2.7c-9.6,3.3-29.2,22.9-34,42.2c-4.8,19.3-6.7,54.3-8.1,79.3
		c-1.3,25-2.9,59-8.6,96.8c-5.7,37.8-11.6,72.2-6.1,108c5.5,35.9,17,95.1,52.8,126.4c35.8,31.3,81.7,57.8,139,52.9
		c90.4-7.7,151.9-80.9,148.8-170.7c-1.6-46.5-18.9-91-42.5-130.6C324.9,235.3,312.3,218,302.6,198.3z M315.8,383.2
		c-4.6,43.6-45.1,85.7-52.2,86.7c-7.1,1-13.2,11.7-30.4,13.7c-17.2,2-31.9,0-39.5-2.5c-7.6-2.5-36-4.6-55.3-24.8
		c-19.3-20.3-45.6-55.8-39-107c6.6-51.2,31.9-71,38.5-77.6c5.1-8.6,21.3-12.7,21.3-12.7c10.6-9.1,35-17.7,57.8-11.2
		s45.6,12.2,62.9,33.5S320.4,339.6,315.8,383.2z"/>
	<path class="st3" d="M217,247.9c-22.8-6.6-47.2,2-57.8,11.2c0,0-16.2,4.1-21.3,12.7c-6.6,6.6-31.9,26.4-38.5,77.6
		c-6.6,51.2,19.8,86.7,39,107c19.3,20.3,47.7,22.3,55.3,24.8c7.6,2.5,22.3,4.6,39.5,2.5c17.2-2,23.3-12.7,30.4-13.7
		c7.1-1,47.7-43.1,52.2-86.7c4.6-43.6-18.8-80.6-36-101.9S239.8,254.5,217,247.9z M303.4,381.1c-4,38.6-40,75.9-46.2,76.8
		s-11.7,10.3-26.9,12.1s-28.3,0-35-2.2c-6.7-2.2-31.9-4-48.9-22c-17.1-18-40.4-49.4-34.6-94.7c5.8-45.3,28.3-62.8,34.1-68.7
		c4.5-7.6,18.9-11.2,18.9-11.2c9.4-8.1,33.5-14.3,53.7-8.4c20.2,5.8,37.8,9.3,53.1,28.2S307.4,342.5,303.4,381.1z"/>
	<path class="st4" d="M218.4,262.7c-20.2-5.8-44.3,0.4-53.7,8.4c0,0-14.4,3.6-18.9,11.2c-5.8,5.8-28.3,23.3-34.1,68.7
		c-5.8,45.3,17.5,76.8,34.6,94.7c17.1,18,42.2,19.8,48.9,22c6.7,2.2,19.8,4,35,2.2s20.6-11.2,26.9-12.1s42.2-38.2,46.2-76.8
		s-16.6-71.4-31.9-90.2S238.6,268.6,218.4,262.7z"/>
</g>
</svg>
