<svg xmlns="http://www.w3.org/2000/svg" viewBox="0 0 416 604"><defs><style>.cls-1{fill:#30492c;}</style></defs><path class="cls-1" d="M363.5,238c-20.6-37.1-49.1-81.1-60.8-103.3s-29.9-68-60.8-100.2C229.8,21.9,215.4,11.8,198.4,7,175.8.7,151.7,1.1,128.7,4c-19.5,2.5-34.8,9.6-50.8,20.9-34.4,24.2-51.1,66-54.7,108.8S19.6,224.4,13,271.2c-5.8,41-11.1,75-11,111.6,0,5.2.1,10.5.4,15.8,2,42.8,17.2,134.5,108.9,180.3s173.7,12.6,212.2-8.6,79.5-58.9,89.1-155.6c.9-9.1,1.3-17.7,1.4-26C414.6,308.9,378.6,265.4,363.5,238Z"/></svg>