<?xml version="1.0" encoding="utf-8"?>
<!-- Generator: Adobe Illustrator 24.3.0, SVG Export Plug-In . SVG Version: 6.00 Build 0)  -->
<svg version="1.1" id="레이어_1" xmlns="http://www.w3.org/2000/svg" xmlns:xlink="http://www.w3.org/1999/xlink" x="0px"
	 y="0px" viewBox="0 0 416 604" style="enable-background:new 0 0 416 604;" xml:space="preserve">
<style type="text/css">
	.st0{fill:#B4D435;}
	.st1{fill:#E6ECA2;}
</style>
<path class="st0" d="M295,141.4c-11.1-21.2-34-66.5-63.4-97.4c-5.8-6.2-12.4-11.8-19.5-16.5c-7.4-4.8-11.2-6.8-19.8-9
	c-9.2-2.3-14.4-3.8-23.8-3.9c-9,0-18-0.1-26.9,0.4c-3.4,0.2-6.7,0.9-10.1,1.1l-1.2,0.1c-3.1,0.1-6.1,0.5-9.2,1
	c-3.2,0.7-6.4,1.7-9.5,2.9c-9.9,3.8-19,9.5-27.6,15.6C51.2,58.8,35.2,98.9,31.9,139.9s-3.4,86.8-9.6,131.7s-12.1,81-10.1,122
	s16.4,128.8,103.8,172.7s165.5,12.1,202.2-8.2s75.8-56.4,85-149.1s-32.3-138.7-48.2-167.7C335.2,205.8,306.1,162.7,295,141.4z
	 M229.9,555.4c-57.3,4.9-103.2-21.6-139-52.9S43.7,412,38.2,376.1s0.5-70.2,6.1-108s7.2-71.8,8.6-96.8s3.3-60,8.1-79.3
	s24.4-38.9,34-42.2s13.8-4.9,31.9-2.7c5.4,0.7,5.7,3,10.6,2.6s11.4-16.9,45.8-13.3s62.8,58.9,86.9,98.6c12.4,20.3,22,42,32.5,63.3
	c9.7,19.8,22.3,37.1,33.5,55.9c23.6,39.6,40.9,84.1,42.5,130.6C381.7,474.6,320.2,547.8,229.9,555.4L229.9,555.4z"/>
<path class="st1" d="M378.7,384.8c-1.6-46.5-18.9-91-42.5-130.6c-11.3-18.8-23.9-36.1-33.6-55.9c-10.5-21.3-20.2-43-32.5-63.3
	c-24.1-39.8-52.6-95.1-86.9-98.6s-40.9,12.9-45.8,13.3c-4.9,0.4-5.2-1.9-10.6-2.6c-18-2.2-22.3-0.6-31.9,2.7
	c-9.6,3.3-29.2,22.9-34,42.2c-4.8,19.3-6.7,54.3-8.1,79.3c-1.3,25-2.9,59-8.6,96.8c-5.7,37.8-11.6,72.2-6.1,108
	c5.5,35.8,17,95.1,52.8,126.4c35.8,31.3,81.7,57.8,139,52.9C320.3,547.7,381.8,474.5,378.7,384.8z"/>
</svg>
