<?xml version="1.0" encoding="utf-8"?>
<!-- Generator: Adobe Illustrator 24.3.0, SVG Export Plug-In . SVG Version: 6.00 Build 0)  -->
<svg version="1.1" id="레이어_1" xmlns="http://www.w3.org/2000/svg" xmlns:xlink="http://www.w3.org/1999/xlink" x="0px"
	 y="0px" viewBox="0 0 416 604" style="enable-background:new 0 0 416 604;" xml:space="preserve">
<style type="text/css">
	.st0{fill:#EEEFD3;}
</style>
<g>
	<path class="st0" d="M0,0v604h416V0H0z M413.6,398.7c-2,42.8-17.2,134.5-108.9,180.3S131,591.6,92.5,570.4
		C54.1,549.3,13,511.5,3.4,414.8c-0.9-9.1-1.3-17.7-1.4-26C1.4,308.9,37.4,265.4,52.5,238c20.6-37.1,49.1-81.1,60.8-103.3
		c11.6-22.2,29.9-68,60.8-100.2c12.1-12.6,26.5-22.7,43.5-27.5c22.6-6.3,46.7-5.9,69.7-3c19.5,2.5,34.8,9.6,50.8,20.9
		c34.4,24.2,51.1,66,54.7,108.8s3.5,90.7,10.1,137.5c5.8,41,11.1,75,11,111.6C414,388.1,413.9,393.3,413.6,398.7z"/>
</g>
</svg>
