<?xml version="1.0" encoding="utf-8"?>
<!-- Generator: Adobe Illustrator 24.3.0, SVG Export Plug-In . SVG Version: 6.00 Build 0)  -->
<svg version="1.1" id="레이어_1" xmlns="http://www.w3.org/2000/svg" xmlns:xlink="http://www.w3.org/1999/xlink" x="0px"
	 y="0px" viewBox="0 0 416 604" style="enable-background:new 0 0 416 604;" xml:space="preserve">
<style type="text/css">
	.st0{fill:#5F301C;}
</style>
<path class="st0" d="M315.8,383.3c-4.6,43.6-45.1,85.7-52.2,86.7s-13.2,11.6-30.4,13.6c-17.2,2-31.9,0-39.5-2.5
	c-7.6-2.5-36-4.5-55.2-24.8c-19.3-20.3-45.6-55.8-39-107c6.6-51.2,32-71,38.5-77.6c5.1-8.6,21.3-12.7,21.3-12.7
	c10.7-9.2,35-17.7,57.8-11.2c22.8,6.6,45.6,12.2,62.8,33.5C297.1,302.7,320.4,339.7,315.8,383.3z"/>
</svg>
