<?xml version="1.0" encoding="utf-8"?>
<!-- Generator: Adobe Illustrator 24.3.0, SVG Export Plug-In . SVG Version: 6.00 Build 0)  -->
<svg version="1.1" id="레이어_1" xmlns="http://www.w3.org/2000/svg" xmlns:xlink="http://www.w3.org/1999/xlink" x="0px"
	 y="0px" viewBox="0 0 416 604" style="enable-background:new 0 0 416 604;" xml:space="preserve">
<style type="text/css">
	.st0{fill:#30492C;}
	.st1{fill:#B4D435;}
	.st2{fill:#E6ECA2;}
	.st3{fill:#5F301C;}
	.st4{fill:#8C562A;}
</style>
<path class="st0" d="M363.5,238c-20.6-37.1-49.1-81.1-60.8-103.3c-11.6-22.2-29.9-68-60.8-100.2C229.8,21.9,215.4,11.8,198.4,7
	c-22.6-6.3-46.7-5.9-69.7-3c-19.5,2.5-34.8,9.6-50.8,20.9c-34.4,24.2-51.1,66-54.7,108.8S19.6,224.4,13,271.2
	c-5.8,41-11.1,75-11,111.6c0,5.2,0.1,10.5,0.4,15.8c2,42.8,17.2,134.5,108.9,180.3s173.7,12.6,212.2-8.6
	c38.5-21.2,79.5-58.9,89.1-155.6c0.9-9.1,1.3-17.7,1.4-26C414.6,308.9,378.6,265.4,363.5,238z"/>
<path class="st1" d="M130.3,16.7c0.4,0,0.8-0.1,1.2-0.1c3.4-0.2,6.7-0.9,10.1-1.1c8.9-0.5,18-0.4,26.9-0.4c9.5,0.1,19,0.9,28.3,3.3
	c8.5,2.2,16.7,5.7,24.1,10.4c7.2,4.6,13.6,10.3,19.5,16.5c29.4,30.9,43.5,75.4,54.6,96.6s40.2,64.3,59.8,99.9
	c15.9,28.9,57.3,75.1,48.2,167.7c-9.2,92.6-48.3,128.8-84.9,149.1c-36.7,20.3-114.9,52.1-202.2,8.2C28.5,522.9,16,435.2,14.1,394.2
	s4.2-77.4,10.5-122.2s3.9-90.6,7.3-131.6S51.2,59.3,84,36.2c8.6-6.1,17.8-11.7,27.6-15.6c3.1-1.2,6.2-2.3,9.5-2.9
	C124.1,17.1,127.2,16.9,130.3,16.7z"/>
<path class="st2" d="M126.7,47.6c-18-2.2-22.3-0.6-31.9,2.7s-29.2,22.9-34,42.3c-4.8,19.4-6.7,54.4-8.1,79.5
	c-1.3,25-2.9,59.1-8.6,97s-11.6,72.3-6.1,108.2s17,95.3,52.8,126.6s81.7,57.9,139,53c90.4-7.7,151.9-81,148.8-170.9
	c-1.6-46.6-18.9-91.1-42.5-130.8c-11.2-18.9-23.8-36.2-33.5-56c-10.5-21.4-20.2-43.1-32.5-63.4c-24.1-39.8-52.6-95.2-86.9-98.8
	c-34.4-3.5-40.9,13-45.8,13.4C132.4,50.7,132.1,48.3,126.7,47.6z"/>
<path class="st3" d="M158.4,258.5c8.3-4.5,17.3-8.3,26.2-10.3c17.2-3.9,35.3-0.5,51.6,5.6c16.4,6.2,32.4,14.6,43.6,28.4
	c0,0,0,0.1,0.1,0.1c17.2,21.3,40.6,58.4,36,102.1c-1.9,17.9-9,35-18.5,50.2c-9.4,14.9-20.7,28.8-36,37.9c-0.8,0.5-1.5,0.9-2.3,1.3
	c-32.7,19.1-71.9,12.5-104.2-4.3c-6.3-3.3-11.6-6.8-16.5-11.9c-19.3-20.3-45.6-55.9-39-107.2c4.5-35,20.6-67.9,51-87.1
	C152.9,261.6,155.6,260,158.4,258.5z"/>
<path class="st4" d="M164.2,271.1c15.9-8.6,33.8-14.1,51.7-8.9c20.2,5.8,40.4,10.8,55.7,29.7c15.3,18.9,35.9,51.7,31.9,90.4
	c-1.7,16.3-8.7,31.9-17.5,45.6c-14.1,22-36.3,41.8-63.3,43.8c-10.7,0.8-21.4-0.7-31.8-3c-16-3.6-32.9-9.4-44.4-21.6
	c-17.1-18-40.4-49.5-34.6-94.9c1.9-14.9,6-29.6,13.2-42.9c7-12.7,16.3-23.7,28.5-31.7C156.9,275.3,160.5,273.1,164.2,271.1z"/>
</svg>
