<svg id="레이어_1" data-name="레이어 1" xmlns="http://www.w3.org/2000/svg" viewBox="0 0 416 604"><defs><style>.cls-1{fill:#5f301c;}</style></defs><path class="cls-1" d="M158.4,258.5a104.22,104.22,0,0,1,26.2-10.3c17.2-3.9,35.3-.5,51.6,5.6s32.4,14.6,43.6,28.4a.1.1,0,0,0,.1.1c17.2,21.3,40.6,58.4,36,102.1-1.9,17.9-9,35-18.5,50.2-9.4,14.9-20.7,28.8-36,37.9-.8.5-1.5.9-2.3,1.3-32.7,19.1-71.9,12.5-104.2-4.3a61,61,0,0,1-16.5-11.9c-19.3-20.3-45.6-55.9-39-107.2,4.5-35,20.6-67.9,51-87.1A89.09,89.09,0,0,1,158.4,258.5Z"/></svg>