<svg id="레이어_1" data-name="레이어 1" xmlns="http://www.w3.org/2000/svg" viewBox="0 0 416 604"><defs><style>.cls-1{fill:#30492c;}</style></defs><path class="cls-1" d="M363.46,238c-20.55-37.14-49.12-81.1-60.76-103.26s-29.88-68-60.77-100.23C229.82,21.87,215.45,11.76,198.44,7c-22.59-6.3-46.66-5.9-69.74-2.95-19.47,2.48-34.78,9.58-50.85,20.87-34.44,24.18-51.15,66-54.69,108.79S19.61,224.39,13,271.23c-5.76,41-11.13,75-11,111.61,0,5.22.14,10.48.4,15.82,2,42.82,17.21,134.49,108.87,180.32s173.7,12.59,212.19-8.56,79.5-58.93,89.13-155.64c.9-9.06,1.35-17.72,1.4-26C414.55,308.9,378.62,265.37,363.46,238ZM403,409.54C393.79,502.16,354.7,538.34,318,558.6s-114.86,52.1-202.21,8.2S16,435.2,14.07,394.2,18.28,316.83,24.55,272s3.93-90.59,7.3-131.6S51.16,59.32,84,36.17c8.62-6.08,17.76-11.73,27.62-15.57a57.35,57.35,0,0,1,9.51-2.9,70.54,70.54,0,0,1,9.18-1l1.2-.08c3.36-.24,6.68-.94,10.05-1.12,8.95-.5,18-.37,26.93-.37a121.18,121.18,0,0,1,28.27,3.25,81.5,81.5,0,0,1,24.08,10.43,107.91,107.91,0,0,1,19.52,16.48c29.44,30.87,43.54,75.39,54.64,96.61s40.25,64.32,59.83,99.89C370.74,270.77,412.13,316.92,403,409.54Z"/></svg>