<svg id="레이어_1" data-name="레이어 1" xmlns="http://www.w3.org/2000/svg" viewBox="0 0 416 604"><defs><style>.cls-1{fill:#8c562a;}</style></defs><path class="cls-1" d="M215.86,262.23c-17.89-5.17-35.79.27-51.69,8.9-3.69,2-7.27,4.18-10.71,6.43-12.24,8-21.53,19-28.51,31.74-7.24,13.21-11.32,28-13.23,42.86-5.84,45.41,17.5,76.89,34.56,94.87,11.56,12.19,28.42,18,44.44,21.6,10.44,2.34,21.17,3.84,31.84,3,27-2,49.27-21.8,63.33-43.82,8.75-13.71,15.79-29.23,17.5-45.56,4-38.67-16.61-71.5-31.87-90.38S236.06,268.08,215.86,262.23Z"/></svg>