<?xml version="1.0" encoding="utf-8"?>
<!-- Generator: Adobe Illustrator 24.3.0, SVG Export Plug-In . SVG Version: 6.00 Build 0)  -->
<svg version="1.1" id="레이어_1" xmlns="http://www.w3.org/2000/svg" xmlns:xlink="http://www.w3.org/1999/xlink" x="0px"
	 y="0px" viewBox="0 0 290 414" style="enable-background:new 0 0 290 414;" xml:space="preserve">
<style type="text/css">
	.st0{fill:#F2EAA7;}
</style>
<path class="st0" d="M0,0v414h290V0H0z M289,255.1c-9.8,165.5-153.8,168.9-194.8,150.3c-34-15.4-97.5-59-93-150.3
	c1.3-26.7,8.5-57.4,23.8-92.6c4.2-9.5,8.4-18.5,12.6-27c10.2-20.3,20.5-37.4,30.6-52c11.1-15.9,22-28.7,32.4-39
	c40.9-40.6,73-42.3,73-42.3s29.3-2.6,44,3.1c13.3,6.7,29.2,8.6,43,39.1c4.4,9.7,8.6,22.4,12.4,39c3.2,14.2,6.2,31.3,8.8,52
	c2.8,22.6,5.2,49.4,7,81.4C289.7,230.5,289.7,243.2,289,255.1z"/>
</svg>
