<svg id="레이어_1" data-name="레이어 1" xmlns="http://www.w3.org/2000/svg" viewBox="0 0 416 604"><defs><style>.cls-1{fill:#5f301c;}</style></defs><path class="cls-1" d="M279.77,282.22c-11.18-13.79-27.23-22.24-43.62-28.4s-34.39-9.49-51.6-5.61a104.32,104.32,0,0,0-26.16,10.3c-2.78,1.51-5.47,3.09-8,4.71-30.4,19.21-46.54,52.13-51,87.13-6.59,51.3,19.78,86.85,39.05,107.17a59.11,59.11,0,0,0,16.51,12c32.33,16.75,71.56,23.33,104.23,4.27l2.29-1.34c15.25-9.06,26.6-22.93,36-37.85,9.51-15.15,16.6-32.27,18.47-50.17,4.56-43.68-18.76-80.75-36-102.08Zm23.62,100.07c-1.71,16.33-8.75,31.85-17.5,45.56-14.06,22-36.31,41.79-63.33,43.82-10.67.8-21.4-.7-31.84-3-16-3.6-32.88-9.41-44.44-21.6-17.06-18-40.4-49.46-34.56-94.87,1.91-14.89,6-29.65,13.23-42.86,7-12.73,16.27-23.74,28.51-31.74,3.44-2.25,7-4.43,10.71-6.43,15.9-8.63,33.8-14.07,51.69-8.9,20.2,5.85,40.4,10.79,55.66,29.68S307.43,343.62,303.39,382.29Z"/></svg>