<svg id="레이어_1" data-name="레이어 1" xmlns="http://www.w3.org/2000/svg" viewBox="0 0 416 604"><defs><style>.cls-1{fill:#5f301c;}</style></defs><path class="cls-1" d="M217,247.86c-22.82-6.59-47.16,2-57.81,11.16,0,0-16.22,4.05-21.29,12.67-6.59,6.59-31.94,26.37-38.54,77.58s19.78,86.7,39.05,107S186,478.57,193.63,481.1s22.31,4.56,39.55,2.54S256.51,471,263.61,470s47.66-43.1,52.22-86.71-18.76-80.62-36-101.91S239.77,254.45,217,247.86Zm86.43,133.29c-4,38.6-39.95,75.86-46.24,76.76S245.48,468.23,230.22,470s-28.28,0-35-2.25-31.87-4-48.93-22-40.4-49.38-34.56-94.72S140,288.23,145.83,282.4c4.49-7.64,18.85-11.23,18.85-11.23,9.43-8.08,33.53-14.28,53.73-8.44s37.85,9.34,53.11,28.19S307.43,342.55,303.39,381.15Z"/></svg>