<svg id="레이어_1" data-name="레이어 1" xmlns="http://www.w3.org/2000/svg" viewBox="0 0 416 604"><defs><style>.cls-1{fill:#30492c;}</style></defs><path class="cls-1" d="M363.46,237.49c-20.55-37.15-49.12-81.1-60.76-103.26S272.82,66.23,241.93,34c-12.11-12.64-26.48-22.75-43.49-27.49C175.85.21,151.78.61,128.7,3.56,109.23,6,93.92,13.14,77.85,24.43c-34.44,24.18-51.15,66-54.69,108.79S19.61,223.89,13,270.73c-5.76,41-11.13,75-11,111.61,0,5.21.14,10.48.4,15.82,2,42.82,17.21,134.49,108.87,180.32s173.7,12.59,212.19-8.56S403,511,412.59,414.28c.9-9.06,1.35-17.72,1.4-26C414.55,308.4,378.62,264.87,363.46,237.49ZM403,409C393.79,501.66,354.7,537.84,318,558.1s-114.86,52.1-202.21,8.2S14,434.6,12.07,393.6s3.86-77.18,10.13-122,6.28-90.69,9.65-131.7S51.16,58.82,84,35.67c8.62-6.09,17.76-11.73,27.62-15.57a57.35,57.35,0,0,1,9.51-2.9,70.54,70.54,0,0,1,9.18-1l1.2-.08c3.36-.24,6.68-.94,10.05-1.13,8.95-.5,18-.36,26.93-.36,9.49.1,14.61,1.6,23.84,3.93,8.54,2.16,12.36,4.19,19.77,9A107.57,107.57,0,0,1,231.59,44C261,74.91,283.87,120.22,295,141.44s40.25,64.32,59.83,99.89C370.74,270.27,412.13,316.42,403,409Z"/></svg>