<svg id="레이어_1" data-name="레이어 1" xmlns="http://www.w3.org/2000/svg" viewBox="0 0 416 604"><defs><style>.cls-1{fill:#b4d435;}.cls-2{fill:#e6eca2;}</style></defs><path class="cls-1" d="M295,141.44C283.87,120.22,261,74.91,231.59,44a107.57,107.57,0,0,0-19.52-16.48c-7.41-4.77-11.23-6.8-19.77-9-9.23-2.33-14.35-3.83-23.84-3.93-9,0-18-.14-26.93.36-3.37.19-6.69.89-10.05,1.13l-1.2.08a70.54,70.54,0,0,0-9.18,1,57.35,57.35,0,0,0-9.51,2.9c-9.86,3.84-19,9.48-27.62,15.57C51.16,58.82,35.23,98.86,31.85,139.86s-3.37,86.83-9.65,131.7-12.06,81-10.13,122S28.48,522.4,115.82,566.3,281.35,578.36,318,558.1,393.79,501.66,403,409,370.74,270.27,354.8,241.33C335.22,205.76,306.07,162.67,295,141.44Zm-65.1,414c-57.3,4.88-103.19-21.58-139-52.88S43.68,412,38.16,376.15s.45-70.22,6.12-108,7.23-71.8,8.56-96.8,3.29-60,8.06-79.32,24.36-38.91,34-42.22,13.85-4.87,31.88-2.71c5.37.65,5.69,3,10.59,2.58s11.41-16.89,45.8-13.35,62.81,58.86,86.94,98.62c12.35,20.34,22.05,42,32.52,63.34,9.71,19.79,22.28,37.07,33.53,55.94,23.61,39.61,40.89,84.08,42.5,130.59C381.73,474.57,320.22,547.75,229.87,555.44Z"/><path class="cls-2" d="M302.59,198.26c-10.47-21.33-20.17-43-32.52-63.34-24.13-39.76-52.56-95.08-86.94-98.62s-40.89,12.94-45.8,13.35-5.22-1.93-10.59-2.58c-18-2.16-22.28-.59-31.88,2.71S65.68,72.68,60.9,92s-6.73,54.32-8.06,79.32-2.89,59-8.56,96.8-11.64,72.16-6.12,108,17,95.11,52.75,126.41,81.66,57.76,139,52.88c90.35-7.69,151.86-80.87,148.75-170.65-1.61-46.51-18.89-91-42.5-130.59C324.87,235.33,312.3,218.05,302.59,198.26Zm13.24,185c-4.56,43.61-45.13,85.69-52.22,86.71s-13.19,11.66-30.43,13.69-31.94,0-39.55-2.54-36-4.56-55.26-24.84-45.64-55.78-39.05-107,32-71,38.54-77.58c5.07-8.62,21.29-12.67,21.29-12.67,10.65-9.13,35-17.75,57.81-11.16s45.63,12.17,62.87,33.47S320.39,339.64,315.83,383.24Z"/></svg>