<svg id="레이어_1" data-name="레이어 1" xmlns="http://www.w3.org/2000/svg" viewBox="0 0 416 604"><defs><style>.cls-1{fill:#b4d435;}.cls-2{fill:#e6eca2;}</style></defs><path class="cls-1" d="M295,141.94c-11.1-21.22-25.2-65.74-54.64-96.61a107.91,107.91,0,0,0-19.52-16.48,81.5,81.5,0,0,0-24.08-10.43,121.18,121.18,0,0,0-28.27-3.25c-9,0-18-.13-26.93.37-3.37.18-6.69.88-10.05,1.12l-1.2.08a70.54,70.54,0,0,0-9.18,1,57.35,57.35,0,0,0-9.51,2.9c-9.86,3.84-19,9.49-27.62,15.57C51.16,59.32,35.23,99.36,31.85,140.36s-1,86.74-7.3,131.6S12.14,353.19,14.07,394.2,28.48,522.9,115.82,566.8,281.35,578.86,318,558.6,393.79,502.16,403,409.54,370.74,270.77,354.8,241.83C335.22,206.26,306.07,163.17,295,141.94Zm-65.1,414.93c-57.3,4.88-103.19-21.62-139-53S43.68,413.2,38.16,377.28s.45-70.34,6.12-108.22,7.23-71.91,8.56-96.95S56.13,112,60.9,92.65s24.36-39,34-42.28,13.85-4.89,31.88-2.72c5.37.64,5.69,3,10.59,2.58s11.41-16.92,45.8-13.37,62.81,59,86.94,98.78c12.35,20.38,22.05,42.09,32.52,63.45,9.71,19.82,22.28,37.13,33.53,56,23.61,39.68,40.89,84.22,42.5,130.81C381.73,475.86,320.22,549.16,229.87,556.87Z"/><path class="cls-2" d="M302.59,199.09c-10.47-21.36-20.17-43.07-32.52-63.45-24.13-39.82-52.56-95.23-86.94-98.78s-40.89,13-45.8,13.37-5.22-1.94-10.59-2.58c-18-2.17-22.28-.6-31.88,2.72S65.68,73.3,60.9,92.65s-6.73,54.42-8.06,79.46S50,231.19,44.28,269.06s-11.64,72.29-6.12,108.22,17,95.27,52.75,126.62,81.66,57.85,139,53c90.35-7.71,151.86-81,148.75-170.94-1.61-46.59-18.89-91.13-42.5-130.81C324.87,236.22,312.3,218.91,302.59,199.09Zm13.24,185.29c-1.87,17.9-9,35-18.47,50.17-9.36,14.92-20.71,28.79-36,37.85l-2.29,1.34c-32.67,19.06-71.9,12.48-104.23-4.27a59.11,59.11,0,0,1-16.51-12C119.1,437.2,92.73,401.65,99.32,350.35c4.5-35,20.64-67.92,51-87.13,2.56-1.62,5.25-3.2,8-4.71a104.32,104.32,0,0,1,26.16-10.3c17.21-3.88,35.32-.51,51.6,5.61s32.44,14.61,43.62,28.4l.06.08C297.07,303.63,320.39,340.7,315.83,384.38Z"/></svg>