<svg id="레이어_1" data-name="레이어 1" xmlns="http://www.w3.org/2000/svg" viewBox="0 0 416 604"><defs><style>.cls-1{fill:#b4d435;}.cls-2{fill:#e6eca2;}</style></defs><path class="cls-1" d="M130.3,16.7c.4,0,.8-.1,1.2-.1,3.4-.2,6.7-.9,10.1-1.1,8.9-.5,18-.4,26.9-.4a117.69,117.69,0,0,1,28.3,3.3,84.6,84.6,0,0,1,24.1,10.4,105.91,105.91,0,0,1,19.5,16.5c29.4,30.9,43.5,75.4,54.6,96.6s40.2,64.3,59.8,99.9c15.9,28.9,57.3,75.1,48.2,167.7s-48.3,128.8-84.9,149.1-114.9,52.1-202.2,8.2S16,435.2,14.1,394.2,18.3,316.8,24.6,272s3.9-90.6,7.3-131.6S51.2,59.3,84,36.2c8.6-6.1,17.8-11.7,27.6-15.6a52.13,52.13,0,0,1,9.5-2.9A70,70,0,0,1,130.3,16.7Z"/><path class="cls-2" d="M126.7,47.6c-18-2.2-22.3-.6-31.9,2.7s-29.2,22.9-34,42.3-6.7,54.4-8.1,79.5-2.9,59.1-8.6,97S32.5,341.4,38,377.3s17,95.3,52.8,126.6,81.7,57.9,139,53c90.4-7.7,151.9-81,148.8-170.9-1.6-46.6-18.9-91.1-42.5-130.8-11.2-18.9-23.8-36.2-33.5-56-10.5-21.4-20.2-43.1-32.5-63.4C246,96,217.5,40.6,183.2,37s-40.9,13-45.8,13.4S132.1,48.3,126.7,47.6Z"/></svg>